<?xml version="1.0" standalone="no"?>
<!DOCTYPE svg PUBLIC "-//W3C//DTD SVG 20010904//EN"
 "http://www.w3.org/TR/2001/REC-SVG-20010904/DTD/svg10.dtd">
<svg version="1.0" xmlns="http://www.w3.org/2000/svg"
 width="606.000000pt" height="208.000000pt" viewBox="0 0 606.000000 208.000000"
 preserveAspectRatio="xMidYMid meet">

<g transform="translate(0.000000,208.000000) scale(0.100000,-0.100000)"
fill="#000000" stroke="none">
<path d="M3190 1466 l-94 -32 32 -19 32 -19 0 -90 0 -89 -23 21 c-52 49 -145
66 -211 38 -52 -22 -103 -73 -133 -134 -23 -49 -27 -70 -28 -147 0 -83 3 -96
33 -158 38 -76 87 -119 156 -138 52 -14 127 2 173 37 l33 25 0 -30 0 -31 105
0 c99 0 105 1 96 18 -5 10 -17 24 -25 32 -14 11 -16 60 -16 381 0 345 -1 369
-17 368 -10 0 -61 -15 -113 -33z m-69 -229 l34 -23 3 -221 2 -222 -37 -26
c-54 -36 -88 -33 -133 13 -98 98 -100 355 -3 462 42 48 81 52 134 17z"/>
<path d="M484 1270 c-180 -72 -247 -279 -142 -443 39 -61 100 -103 178 -123
98 -25 199 2 273 74 34 32 67 80 67 97 0 3 -22 5 -49 5 l-48 0 -7 -50 c-8 -63
-46 -110 -87 -110 -142 0 -301 327 -235 485 34 80 123 73 199 -15 l35 -41 87
3 88 3 -44 44 c-56 56 -117 83 -199 88 -48 2 -78 -2 -116 -17z"/>
<path d="M1544 1279 c-87 -25 -181 -122 -205 -212 -15 -54 -6 -143 18 -199 84
-188 330 -233 480 -86 57 56 85 123 85 208 0 92 -29 156 -99 220 -78 71 -183
97 -279 69z m65 -34 c73 -37 151 -169 177 -298 20 -95 13 -155 -22 -197 -45
-53 -110 -37 -183 46 -145 165 -167 464 -34 464 19 0 47 -7 62 -15z"/>
<path d="M993 1247 c-51 -17 -93 -34 -93 -37 0 -3 14 -14 30 -23 l30 -18 0
-197 0 -197 -31 -38 -30 -37 137 0 138 0 -32 33 -32 33 0 137 c0 187 12 207
135 225 l47 7 19 60 c25 82 25 85 -16 85 -79 0 -143 -54 -170 -142 -14 -43
-14 -43 -14 50 -1 67 -4 92 -13 91 -7 0 -55 -15 -105 -32z"/>
<path d="M1910 1273 c0 -4 10 -17 23 -31 14 -15 53 -116 108 -280 l86 -257 61
-3 62 -3 0 48 c0 32 14 87 42 165 24 65 45 118 48 118 3 0 30 -74 60 -165 l54
-165 63 0 63 0 0 54 c0 42 14 94 62 223 51 140 69 177 108 223 72 85 74 80
-34 80 l-95 0 36 -68 37 -68 -58 -157 c-32 -87 -60 -156 -62 -155 -12 13 -133
382 -127 392 3 6 15 21 26 34 l20 22 -132 0 -133 0 25 -30 c14 -16 37 -66 52
-111 l28 -82 -29 -81 c-15 -44 -34 -97 -42 -116 l-14 -35 -68 195 -68 195 25
33 24 32 -125 0 c-70 0 -126 -3 -126 -7z"/>
<path d="M4470 1269 c-14 -6 -46 -31 -72 -57 l-48 -46 0 52 c0 29 -4 52 -9 52
-5 0 -34 -16 -66 -35 -32 -19 -62 -36 -69 -38 -6 -2 0 -13 14 -25 l25 -20 0
-202 c0 -197 -1 -202 -22 -220 -13 -10 -23 -21 -23 -24 0 -3 43 -6 95 -6 52 0
95 3 95 8 0 4 -9 13 -20 20 -19 11 -20 23 -20 207 0 194 0 195 24 210 18 12
38 14 88 9 61 -6 66 -5 82 17 22 33 20 56 -9 84 -27 28 -29 28 -65 14z"/>
<path d="M4772 1270 c-87 -18 -150 -75 -138 -124 4 -15 17 -31 30 -37 35 -17
63 4 91 67 17 38 32 57 51 64 60 23 95 -14 102 -108 l4 -69 -108 -52 c-174
-83 -231 -158 -195 -254 33 -86 158 -97 256 -23 18 14 36 26 38 26 3 0 7 -14
11 -30 6 -35 45 -55 85 -45 35 9 82 45 75 56 -4 6 -11 6 -20 -2 -7 -6 -20 -9
-28 -6 -12 5 -15 46 -18 224 -3 239 -8 263 -63 294 -38 22 -117 30 -173 19z
m138 -353 c0 -100 -1 -104 -27 -129 -57 -53 -103 -61 -146 -28 -52 41 -45 119
16 178 32 30 121 81 145 82 9 0 12 -27 12 -103z"/>
<path d="M5230 1259 c-14 -11 -43 -29 -65 -41 -53 -27 -51 -25 -24 -47 l24
-19 0 -332 0 -333 -22 -15 c-13 -8 -23 -18 -23 -23 0 -5 43 -9 95 -9 52 0 95
4 95 9 0 5 -10 15 -22 23 -22 14 -23 23 -26 148 l-4 133 32 -26 c87 -74 211
-53 279 47 46 66 64 144 59 250 -4 73 -9 101 -31 143 -43 84 -112 121 -190
104 -43 -10 -115 -55 -124 -76 -11 -29 -22 -14 -25 34 l-3 50 -25 -20z m216
-68 c66 -40 98 -178 75 -317 -15 -86 -40 -131 -86 -149 -64 -28 -127 7 -155
85 -6 19 -14 97 -17 173 -6 135 -5 138 18 164 58 63 111 77 165 44z"/>
<path d="M3380 1253 c0 -4 9 -17 21 -29 19 -21 39 -72 158 -411 42 -118 45
-123 72 -123 32 0 28 -11 94 242 22 81 42 145 45 142 3 -3 30 -89 60 -192 56
-187 56 -187 86 -190 l30 -3 64 203 c70 227 100 299 136 327 42 33 30 41 -61
41 -47 0 -85 -4 -85 -8 0 -5 10 -17 21 -28 19 -17 21 -27 16 -79 -4 -48 -54
-236 -84 -315 -3 -8 -29 72 -58 179 -30 106 -51 199 -48 206 2 8 11 16 19 19
8 3 14 10 14 16 0 6 -38 10 -100 10 -55 0 -100 -3 -100 -6 0 -4 11 -17 25 -30
42 -39 42 -66 1 -229 -21 -82 -42 -156 -45 -162 -7 -13 -122 337 -121 368 0 9
7 22 15 29 29 24 14 30 -80 30 -52 0 -95 -3 -95 -7z"/>
</g>
</svg>
