<svg width="124" height="25" viewBox="0 0 124 25" fill="none" xmlns="http://www.w3.org/2000/svg">
<path d="M0.278949 12.25C0.278949 16.003 3.35695 19.135 7.16395 19.135C9.91795 19.135 12.4289 17.461 13.5089 14.896H11.079C11.1329 16.84 10.4849 18.514 8.94595 18.514C6.08395 18.514 3.24895 13.114 3.24895 9.226C3.24895 7.498 3.92395 5.959 5.40895 5.959C6.54295 5.959 7.89295 6.958 8.99995 8.686L13.077 8.713C11.7809 6.607 9.59395 5.365 7.16395 5.365C3.35695 5.365 0.278949 8.443 0.278949 12.25ZM24.4501 5.5C21.0481 5.446 19.8871 6.877 19.1851 10.36V5.5L14.2171 7.147L15.6751 8.119V17.353L14.2171 19H20.6431L19.1851 17.353V11.764C19.1851 9.334 21.4531 9.091 23.3971 8.983L24.4501 5.5ZM24.2731 12.25C24.2731 16.057 27.3241 19.135 31.1311 19.135C34.9651 19.135 38.0161 16.057 38.0161 12.25C38.0161 8.47 34.9651 5.365 31.1311 5.365C27.3241 5.365 24.2731 8.47 24.2731 12.25ZM27.2161 9.226C27.2161 7.363 27.9181 5.959 29.4031 5.959C31.8061 5.959 35.0461 10.765 35.0461 15.274C35.0461 17.137 34.3441 18.541 32.8591 18.541C30.4561 18.541 27.2161 13.735 27.2161 9.226ZM55.7481 8.686L52.9941 16.165L49.8621 7.012L51.1041 5.5H44.9211L46.1901 7.012L47.4321 10.738L45.4611 16.165L42.3291 7.012L43.5441 5.5H37.3881L38.6571 7.012L42.6531 19H45.5691V16.516L47.5671 11.116L50.1861 19H53.1021V16.516L55.9911 8.686L58.6371 5.5H53.9661L55.7481 8.686ZM57.2584 12.25C57.2584 16.03 59.7154 19.135 62.7394 19.135C64.2244 19.135 65.5744 18.568 66.5734 17.38V19H71.5414L70.0834 17.353V0.369998L65.1154 2.017L66.5734 2.989V7.12C65.6284 6.013 64.3594 5.365 62.7394 5.365C59.7154 5.365 57.2584 8.47 57.2584 12.25ZM60.7954 12.25C60.7954 9.415 62.0644 5.986 64.1434 5.986C65.0614 5.986 65.9254 6.688 66.5734 7.525V16.975C65.9254 17.812 65.0614 18.514 64.1434 18.514C62.0644 18.514 60.7954 15.085 60.7954 12.25ZM76.6865 19.2373L73.1138 9.0332C72.7886 8.11035 72.5205 7.47754 72.3096 7.13477C72.0986 6.79199 71.8745 6.59863 71.6372 6.55469V6.06689H75.9482V6.55469C75.7285 6.58984 75.5439 6.69092 75.3945 6.85791C75.2451 7.01611 75.1704 7.20068 75.1704 7.41162C75.1704 7.49072 75.2012 7.64014 75.2627 7.85986C75.2979 7.96533 75.3198 8.04004 75.3286 8.08398L77.9785 16.4028L79.9561 8.7168L79.8374 8.33447C79.688 7.76318 79.5034 7.33252 79.2837 7.04248C79.064 6.74365 78.8091 6.57666 78.519 6.5415V6.06689H83.0015V6.55469C82.7554 6.63379 82.5708 6.75244 82.4478 6.91064C82.3335 7.06006 82.2764 7.25781 82.2764 7.50391C82.2764 7.55664 82.2852 7.62256 82.3027 7.70166C82.3203 7.78076 82.3555 7.9126 82.4082 8.09717L84.6758 16.4028L86.271 11.1162C86.4556 10.5098 86.6006 9.93408 86.7061 9.38916C86.8115 8.83545 86.8643 8.42236 86.8643 8.1499C86.8643 7.75439 86.7764 7.41602 86.6006 7.13477C86.4336 6.84473 86.2051 6.65137 85.915 6.55469V6.06689H89.8306V6.55469C89.3911 6.69531 88.9517 7.12158 88.5122 7.8335C88.0815 8.53662 87.6772 9.49463 87.2993 10.7075L84.623 19.2373H83.2651L80.5229 9.90332L78.0312 19.2373H76.6865ZM90.5161 19V18.4858C90.8589 18.4771 91.1094 18.3364 91.2676 18.064C91.4346 17.7915 91.5181 17.3564 91.5181 16.7588V9.49463C91.5181 8.90576 91.439 8.49707 91.2808 8.26855C91.1226 8.03125 90.8501 7.89062 90.4634 7.84668V7.43799C91.0259 7.29736 91.5532 7.08203 92.0454 6.79199C92.5376 6.49316 92.9902 6.13281 93.4033 5.71094H93.8911V8.30811C94.6294 7.41162 95.2842 6.75244 95.8555 6.33057C96.4268 5.8999 96.9409 5.68457 97.3979 5.68457C97.811 5.68457 98.1362 5.8252 98.3735 6.10645C98.6196 6.37891 98.7427 6.75244 98.7427 7.22705C98.7427 7.64893 98.5977 8.00488 98.3076 8.29492C98.0264 8.57617 97.6704 8.7168 97.2397 8.7168C97.0376 8.7168 96.7476 8.64648 96.3696 8.50586C95.9917 8.35645 95.6797 8.28174 95.4336 8.28174C95.1787 8.28174 94.9238 8.36963 94.6689 8.54541C94.4141 8.72119 94.1548 8.98486 93.8911 9.33643V16.7588C93.8911 17.374 93.9658 17.8135 94.1152 18.0771C94.2734 18.3408 94.5283 18.4771 94.8799 18.4858L94.8931 19H90.5161ZM106.785 11.4458C105 12.1841 103.77 12.874 103.093 13.5156C102.417 14.1484 102.078 14.8867 102.078 15.7305C102.078 16.4248 102.258 16.9917 102.619 17.4312C102.988 17.8618 103.458 18.0771 104.029 18.0771C104.451 18.0771 104.904 17.9277 105.387 17.6289C105.879 17.3213 106.345 16.895 106.785 16.3501V11.4458ZM110.753 18.0244C110.428 18.4727 110.072 18.811 109.685 19.0396C109.307 19.2681 108.907 19.3823 108.485 19.3823C107.914 19.3823 107.488 19.2241 107.207 18.9077C106.925 18.5913 106.785 18.1167 106.785 17.4839V17.4048C106.064 18.0464 105.343 18.5386 104.623 18.8813C103.911 19.2153 103.225 19.3823 102.566 19.3823C101.687 19.3823 100.988 19.123 100.47 18.6045C99.96 18.0771 99.7051 17.374 99.7051 16.4951C99.7051 15.4053 100.175 14.4561 101.116 13.6475C102.065 12.8301 103.955 11.8501 106.785 10.7075V8.76953C106.785 7.96094 106.644 7.35889 106.363 6.96338C106.082 6.56787 105.664 6.37012 105.11 6.37012C104.609 6.37012 104.218 6.49756 103.937 6.75244C103.656 6.99854 103.388 7.56104 103.133 8.43994C103.027 8.81787 102.838 9.12549 102.566 9.36279C102.293 9.59131 101.99 9.70557 101.656 9.70557C101.313 9.70557 101.023 9.58691 100.786 9.34961C100.549 9.10352 100.43 8.80029 100.43 8.43994C100.43 7.69287 100.878 7.04688 101.775 6.50195C102.68 5.95703 103.801 5.68457 105.137 5.68457C106.534 5.68457 107.541 5.96582 108.156 6.52832C108.771 7.09082 109.079 8.01807 109.079 9.31006V17.062C109.079 17.4751 109.127 17.7783 109.224 17.9717C109.32 18.1562 109.47 18.2485 109.672 18.2485C109.821 18.2485 109.949 18.209 110.054 18.1299C110.168 18.042 110.274 17.9102 110.371 17.7344L110.753 18.0244ZM115.024 9.05957V13.4629C115.024 15.1328 115.279 16.416 115.789 17.3125C116.308 18.2002 117.042 18.644 117.991 18.644C119.037 18.644 119.814 18.1606 120.324 17.1938C120.843 16.2183 121.102 14.7417 121.102 12.7642C121.102 11.0151 120.821 9.66162 120.258 8.70361C119.696 7.73682 118.905 7.25342 117.885 7.25342C117.367 7.25342 116.866 7.40723 116.382 7.71484C115.908 8.01367 115.455 8.46191 115.024 9.05957ZM111.729 24.9458V24.4316C112.08 24.4141 112.335 24.269 112.493 23.9966C112.651 23.7329 112.73 23.3022 112.73 22.7046V9.49463C112.73 8.91455 112.651 8.50586 112.493 8.26855C112.335 8.03125 112.054 7.89062 111.649 7.84668V7.43799C112.221 7.29736 112.752 7.07764 113.245 6.77881C113.737 6.47998 114.185 6.11523 114.589 5.68457H115.024V8.12354C115.613 7.30615 116.246 6.69531 116.923 6.29102C117.608 5.88672 118.355 5.68457 119.164 5.68457C120.474 5.68457 121.528 6.27344 122.328 7.45117C123.128 8.62012 123.528 10.1934 123.528 12.1709C123.528 14.2539 123.031 15.9766 122.038 17.3389C121.045 18.7012 119.814 19.3823 118.347 19.3823C117.696 19.3823 117.099 19.2505 116.554 18.9868C116.009 18.7231 115.499 18.3232 115.024 17.7871V22.7046C115.024 23.3198 115.099 23.7549 115.249 24.0098C115.407 24.2734 115.666 24.4141 116.026 24.4316V24.9458H111.729Z" fill="black"/>
</svg>